<svg width="32" height="32" viewBox="0 0 32 32" fill="none" xmlns="http://www.w3.org/2000/svg">
<path d="M13.5 17.999C13.776 17.999 13.9998 18.223 14 18.499V22.9082C13.9999 23.5106 13.5116 23.999 12.9092 23.999C12.3068 23.999 11.8184 23.5106 11.8183 22.9082V21.7344L8.87497 24.6777C8.44613 25.1065 7.7501 25.1065 7.32126 24.6777C6.89265 24.2489 6.89252 23.5528 7.32126 23.124L10.2646 20.1807H9.09079C8.48839 20.1806 7.99997 19.6923 7.99997 19.0898C8.00018 18.4876 8.48851 17.9991 9.09079 17.999H13.5ZM23.125 7.32128C23.5538 6.89248 24.2498 6.89248 24.6787 7.32128C25.1075 7.75012 25.1075 8.44613 24.6787 8.87499L21.7353 11.8183H22.9092C23.5116 11.8184 24 12.3067 24 12.9092C24 13.5116 23.5116 13.9999 22.9092 14H18.5C18.2238 14 18 13.7761 18 13.5V9.09081C18.0001 8.48842 18.4884 8.00004 19.0908 7.99999C19.6932 7.99999 20.1815 8.48839 20.1816 9.09081V10.2646L23.125 7.32128Z" fill="white"/>
</svg>
