<svg width="32" height="32" viewBox="0 0 32 32" fill="none" xmlns="http://www.w3.org/2000/svg">
<path opacity="0.7" d="M18.1389 24.5053L18.1291 24.6469C18.0402 25.2892 17.3567 25.6798 16.758 25.4301L16.6321 25.3666L12.4934 22.9321L13.9241 21.4536L16.1389 22.7563V19.1674L18.1389 17.102V24.5053ZM24.0022 11.0473C24.1532 11.1761 24.3008 11.3098 24.4416 11.4506C25.1379 12.147 25.6908 12.9735 26.0676 13.8832C26.4444 14.793 26.6389 15.7687 26.6389 16.7534C26.6388 17.7381 26.4444 18.7137 26.0676 19.6235C25.6907 20.5333 25.138 21.3607 24.4416 22.0571C23.7453 22.7533 22.9187 23.3062 22.009 23.6831C21.0992 24.0599 20.1237 24.2533 19.1389 24.2534V22.2446C19.8599 22.2446 20.5744 22.1025 21.2405 21.8266C21.9064 21.5507 22.512 21.1459 23.0217 20.6362C23.5314 20.1264 23.9362 19.5209 24.2121 18.8549C24.488 18.1889 24.6301 17.4743 24.6301 16.7534C24.6301 16.0325 24.488 15.3178 24.2121 14.6518C23.9362 13.9858 23.5314 13.3803 23.0217 12.8706C22.8883 12.7371 22.7477 12.6112 22.6018 12.4926L24.0022 11.0473ZM16.6321 7.14008C17.2986 6.74836 18.1389 7.22912 18.1389 8.00239V11.9223L16.1389 13.9877V9.74946L9.47875 13.6674C7.50733 14.8275 7.50729 17.6793 9.47875 18.8393L10.7287 19.5747L9.29711 21.0522L8.46508 20.5629C5.17878 18.6297 5.17881 13.8771 8.46508 11.9438L16.6321 7.14008ZM20.9778 14.1694C21.1033 14.284 21.2227 14.4056 21.3313 14.5366C21.8625 15.1773 22.1475 15.9692 22.1389 16.7817C22.1301 17.594 21.8281 18.3797 21.2834 19.0102C20.7386 19.6407 19.9826 20.0792 19.1389 20.2534L19.1829 16.0229L20.9778 14.1694ZM19.1389 9.25336C19.6262 9.25338 20.1113 9.30024 20.5871 9.39399L19.1389 10.8901V9.25336Z" fill="white"/>
<path opacity="0.7" fill-rule="evenodd" clip-rule="evenodd" d="M7.76326 25.1428C7.34172 24.7469 7.32587 24.0895 7.72785 23.6744L23.1469 7.75163C23.5489 7.33651 24.2165 7.3209 24.638 7.71676C25.0596 8.11262 25.0754 8.77005 24.6734 9.18517L9.25437 25.1079C8.85239 25.5231 8.18479 25.5387 7.76326 25.1428Z" fill="white"/>
</svg>
