<svg width="32" height="32" viewBox="0 0 32 32" fill="none" xmlns="http://www.w3.org/2000/svg">
<path d="M22 6C24.2091 6 26 7.79086 26 10V18C26 20.2091 24.2091 22 22 22H18.8428L20.0137 23.1709C20.4397 23.5969 20.4397 24.2878 20.0137 24.7139C19.5877 25.1396 18.8977 25.1396 18.4717 24.7139L15.3535 21.5967C15.1583 21.4014 15.1583 21.0839 15.3535 20.8887L18.4717 17.7715C18.8977 17.3457 19.5877 17.3457 20.0137 17.7715C20.4397 18.1975 20.4397 18.8884 20.0137 19.3145L19.3281 20H22C23.1046 20 24 19.1046 24 18V10C24 8.89543 23.1046 8 22 8H10C8.89543 8 8 8.89543 8 10V18C8 19.1046 8.89543 20 10 20H12V22H10C7.79086 22 6 20.2091 6 18V10C6 7.79086 7.79086 6 10 6H22Z" fill="#BABABA"/>
<path d="M15.55 11.54L14.55 11.85C14.45 11.7833 14.35 11.69 14.25 11.57C14.15 11.45 14.1 11.2833 14.1 11.07C14.1 10.67 14.3433 10.39 14.83 10.23L15.95 9.85H16.32C16.6067 9.85 16.8333 9.93333 17 10.1C17.1667 10.2667 17.25 10.4933 17.25 10.78V15.99C17.1767 16.0033 17.0667 16.02 16.92 16.04C16.78 16.0667 16.6367 16.08 16.49 16.08C16.3433 16.08 16.21 16.07 16.09 16.05C15.9767 16.03 15.88 15.99 15.8 15.93C15.72 15.87 15.6567 15.79 15.61 15.69C15.57 15.5833 15.55 15.4467 15.55 15.28V11.54Z" fill="#BABABA"/>
</svg>
